<svg id="Layer_1" data-name="Layer 1" xmlns="http://www.w3.org/2000/svg" viewBox="0 0 1666.33 1765.73"><defs><style>.cls-1{fill:#094a28;}.cls-2{fill:#589441;}.cls-3{fill:#fff;}</style></defs><title>Urbn laundry</title><circle class="cls-1" cx="1167.4" cy="1270.8" r="40.91"/><circle class="cls-1" cx="462.4" cy="1270.8" r="40.91"/><rect class="cls-2" x="338.86" y="242.26" width="963.11" height="1028.54" rx="108.46"/><circle class="cls-3" cx="820.41" cy="827.84" r="361.64"/><circle class="cls-1" cx="1167.4" cy="338.79" r="21.96"/><circle class="cls-1" cx="1064.34" cy="337.84" r="21.96"/><rect class="cls-1" x="433.88" y="325.9" width="224.41" height="26.6"/><rect class="cls-1" x="337.78" y="397.63" width="964.19" height="15.38"/><path class="cls-1" d="M548.14,1003.18C520.22,970.89,500.32,931,493.31,888.3s-2.82-86.7,9.08-128.15c24.13-82.92,79.19-156.89,153.08-202.52,74.16-45.31,166.62-58.26,250.34-36.94a360.22,360.22,0,0,1,207.6,143.6c-26.09-33.84-57.53-63.42-93.22-86.43A360.32,360.32,0,0,0,904.06,528a335,335,0,0,0-125.7-5,313.31,313.31,0,0,0-117.8,43,338.62,338.62,0,0,0-93.21,84.33,366.12,366.12,0,0,0-57.79,112c-12.51,40.29-17.39,83.33-11.54,125.29.85,5.21,1.47,10.48,2.71,15.63l1.66,7.76,2,7.69a228.59,228.59,0,0,0,10.8,29.91A264,264,0,0,0,548.14,1003.18Z"/><path class="cls-1" d="M498.69,911.75c8.47,29.5,26.32,77.24,65.6,123.68,100.74,119.12,249,119.2,260.89,119,110.53-1.79,185.47-58.91,207.87-77.44,73.29-60.65,99.9-135,108.75-164.57-26.07,44.19-74.63,68.49-122,61.5-55.64-8.19-83.12-55.55-86.44-61.5-25.3,41.06-70.57,65.36-118,63.17-67.68-3.13-103-58.46-105.85-63.17-4.26,5.49-41.32,51.6-105.26,51.53C539.9,963.88,502.86,917.2,498.69,911.75Z"/><circle class="cls-2" cx="944.03" cy="1010.96" r="21.96"/><circle class="cls-2" cx="839.66" cy="1060.3" r="15.05"/><circle class="cls-2" cx="922.07" cy="1090.4" r="15.05"/><path class="cls-1" d="M875.12,608.22q-26.55,34.59-54.5,67.95c-18.53,22.33-37.49,44.29-56.53,66.17s-38.45,43.44-58.15,64.75S666.26,849.46,645.72,870q26.53-34.6,54.48-68c18.54-22.33,37.5-44.29,56.55-66.16s38.46-43.44,58.16-64.74S854.58,628.79,875.12,608.22Z"/><path class="cls-1" d="M966,720.82c-13.35,18.3-27.42,36-41.75,53.41s-29,34.58-43.79,51.62-30,33.74-45.41,50.2-31.07,32.77-47.47,48.4c13.34-18.31,27.41-36,41.74-53.42s29-34.59,43.8-51.61,30-33.74,45.42-50.2S949.61,736.46,966,720.82Z"/><path class="cls-2" d="M362.36,1508H383v-89.38h21.77v94.7A13.91,13.91,0,0,1,400,1524a16.15,16.15,0,0,1-11.28,4.34h-32a16.13,16.13,0,0,1-11.28-4.34,13.91,13.91,0,0,1-4.79-10.63v-94.7h21.77Z"/><path class="cls-2" d="M443.64,1489.22v39.08H421.87V1418.63H470a16.15,16.15,0,0,1,11.28,4.34,13.93,13.93,0,0,1,4.8,10.63v28.26a20.54,20.54,0,0,1-8.37,17.18,20.68,20.68,0,0,1,8.37,17.31v32H464.26v-32a6.69,6.69,0,0,0-2.34-5.12,8.07,8.07,0,0,0-5.44-2Zm12.84-20.29a7.9,7.9,0,0,0,5.44-2.08,6.3,6.3,0,0,0,2.34-5v-22.94H443.64v30Z"/><path class="cls-2" d="M501.66,1418.63H547a16.45,16.45,0,0,1,11.41,4.34,13.93,13.93,0,0,1,4.8,10.63v22.62a20.62,20.62,0,0,1-7.13,16.21,20.7,20.7,0,0,1,9.79,18.28v10.17a24.59,24.59,0,0,1-9.6,20.23q-9,7.19-22.49,7.19H501.66Zm21.77,20.29v24.37h10.05a8.16,8.16,0,0,0,5.51-2,6.57,6.57,0,0,0,2.4-5.06v-17.3Zm0,69.09h10.31q10.31,0,10.31-7.13v-10.17a6.52,6.52,0,0,0-2.34-5.06,8.07,8.07,0,0,0-5.44-2H523.43Z"/><path class="cls-2" d="M600.89,1506.07l-4.41,22.23h-22l21.26-109.67h29l21.19,109.67h-22.1l-4.28-22.23Zm4-20.29h10.63l-5.32-46.73Z"/><path class="cls-2" d="M676.66,1457.65v70.65H654.88V1418.63h30.21l17.82,71v-71h21.78V1528.3H694.55Z"/><path class="cls-1" d="M775,1528.3V1418.63h21.78V1508H827v20.29Z"/><path class="cls-1" d="M861.89,1506.07l-4.41,22.23h-22l21.26-109.67h29l21.19,109.67h-22.1l-4.28-22.23Zm4-20.29h10.63l-5.31-46.73Z"/><path class="cls-1" d="M936.88,1508h20.61v-89.38h21.78v94.7a13.94,13.94,0,0,1-4.79,10.63,16.15,16.15,0,0,1-11.28,4.34h-32A16.12,16.12,0,0,1,919.9,1524a13.92,13.92,0,0,1-4.8-10.63v-94.7h21.78Z"/><path class="cls-1" d="M1015.06,1457.65v70.65H993.29V1418.63h30.2l17.82,71v-71h21.78V1528.3H1033Z"/><path class="cls-1" d="M1077.88,1418.63H1126a16.11,16.11,0,0,1,11.27,4.34,13.93,13.93,0,0,1,4.8,10.63v67.28a24.6,24.6,0,0,1-9.59,20.23q-9,7.19-22.49,7.19h-32.09Zm21.78,20.29V1508H1110q10.3,0,10.3-7.13v-62Z"/><path class="cls-1" d="M1178.48,1489.22v39.08h-21.77V1418.63h48.09a16.15,16.15,0,0,1,11.28,4.34,13.93,13.93,0,0,1,4.8,10.63v28.26a20.54,20.54,0,0,1-8.37,17.18,20.68,20.68,0,0,1,8.37,17.31v32H1199.1v-32a6.69,6.69,0,0,0-2.34-5.12,8.07,8.07,0,0,0-5.44-2Zm12.84-20.29a7.9,7.9,0,0,0,5.44-2.08,6.3,6.3,0,0,0,2.34-5v-22.94h-20.62v30Z"/><path class="cls-1" d="M1274.15,1490.77v37.53h-21.78v-37.46l-22.88-72.21h22.23q4.8,16,11.48,52.5,6.79-36.5,11.53-52.5H1297Z"/></svg>